<svg width="139" height="101" viewBox="0 0 139 101" fill="none" xmlns="http://www.w3.org/2000/svg">
<path d="M32.0001 88C32.0001 88 42.1979 68.2637 40.5968 69.0193C38.9957 69.7749 26.4968 67 26.4968 67C29.2639 71.0954 23.999 85.7148 23.999 88C23.999 89.5763 18.5 92.5 19.0009 97C22.0026 99.5 25.0019 99.0763 28.0019 96.5C30.0172 94.7693 32.0001 88.5534 32.0001 88Z" fill="#7C7979" stroke="black" stroke-width="4"/>
<path d="M121.703 78.7422C118.203 74.7422 105.614 61.9847 106.5 58L91 65C91 69.3167 110.913 81.7244 113.203 82.7422C117.703 84.7422 118.668 88.049 120.203 90.2422C123.703 95.2422 125.894 94.5781 127.703 92.2422C129.578 89.8217 124.443 81.8734 121.703 78.7422Z" fill="#7C7979" stroke="black" stroke-width="4"/>
<path d="M98.2315 2.00785C89.598 2.33991 87.2734 9.31309 85.9452 11.6375C85.0859 13.1412 85.3268 20.8262 85.6846 26.58C82.451 28.6831 75.1204 33.1547 71.667 34.2173C68.2136 35.2799 58.4954 34.6601 54.068 34.2173C50.5261 33.7746 42.2468 33.5532 37.4652 36.2097C32.6836 38.8661 28.8317 43.0722 27.5035 44.8431H22.5226C21.4158 44.8431 18.6708 44.4447 16.5456 42.8508C13.8892 40.8585 10.9007 36.2097 8.90833 32.8891C7.31446 30.2326 6.69462 21.3778 6.58393 17.2825C5.47703 19.2748 3.06399 24.322 2.26706 28.5724C1.27089 33.8853 3.26323 41.5226 4.92351 44.8431C6.58379 48.1637 10.9005 52.4804 14.2211 55.801C16.8775 58.4574 20.8623 58.4574 22.5226 58.1254C22.5226 59.5643 22.8547 62.907 24.1828 64.7665C25.8429 67.0909 27.5035 68.0871 27.5035 71.0756C27.5035 74.0641 37.1603 78 38 81C38.6444 83.3023 43 87.5 47 91C48.2715 92.1126 50.2031 93.6488 51 94.977C51.9962 96.6373 59.858 99.4132 60 97C60.5 88.5 43.1101 76.0564 45.7666 73.4C48.423 70.7435 52.7398 68.0871 56.3924 66.4268C59.3145 65.0986 78.7635 65.8734 89.5 66.4268L85.9452 86C77.9452 87.023 76.981 97.5682 78.5 98.5C80.9452 100 91.4607 94.1526 92.2545 89C93.0482 83.8474 110.518 61.4459 108.857 58.1254C107.197 54.8048 108.525 37.8699 108.857 36.2097C109.189 34.5494 136.418 19.2748 136.418 15.6222C136.418 11.9695 106.865 1.67579 98.2315 2.00785Z" fill="#7C7979"/>
<path d="M99.8915 15.6222C99.8915 20.4923 100.157 29.3131 99.6246 30.2326C98.6935 31.8403 96.5712 34.2173 92.2545 34.2173C88.8011 34.2173 87.0064 32.1724 85.9452 30.2326C85.8605 29.1949 85.7692 27.9415 85.6846 26.58M85.6846 26.58C85.3268 20.8262 85.0859 13.1412 85.9452 11.6375C87.2734 9.31309 89.598 2.33991 98.2315 2.00785C106.865 1.67579 136.418 11.9695 136.418 15.6222C136.418 19.2748 109.189 34.5494 108.857 36.2097C108.525 37.8699 107.197 54.8048 108.857 58.1254C110.518 61.4459 93.0482 83.8474 92.2545 89C91.4607 94.1526 80.9452 100 78.5 98.5C76.981 97.5682 77.9452 87.023 85.9452 86L89.5 66.4268C78.7635 65.8734 59.3145 65.0986 56.3924 66.4268C52.7398 68.0871 48.423 70.7435 45.7666 73.4C43.1101 76.0564 60.5 88.5 60 97C59.858 99.4132 51.9962 96.6373 51 94.977C50.2031 93.6488 48.2715 92.1126 47 91C43 87.5 38.6444 83.3023 38 81C37.1603 78 27.5035 74.0641 27.5035 71.0756C27.5035 68.0871 25.8429 67.0909 24.1828 64.7665C22.8547 62.907 22.5226 59.5643 22.5226 58.1254C20.8623 58.4574 16.8775 58.4574 14.2211 55.801C10.9005 52.4804 6.58379 48.1637 4.92351 44.8431C3.26323 41.5226 1.27089 33.8853 2.26706 28.5724C3.06399 24.322 5.47703 19.2748 6.58393 17.2825C6.69462 21.3778 7.31446 30.2326 8.90833 32.8891C10.9007 36.2097 13.8892 40.8585 16.5456 42.8508C18.6708 44.4447 21.4158 44.8431 22.5226 44.8431H27.5035C28.8317 43.0722 32.6836 38.8661 37.4652 36.2097C42.2468 33.5532 50.5261 33.7746 54.068 34.2173C58.4954 34.6601 68.2136 35.2799 71.667 34.2173C75.1204 33.1547 82.451 28.6831 85.6846 26.58Z" stroke="black" stroke-width="4" stroke-linecap="round"/>
</svg>
