<svg width="139" height="101" viewBox="0 0 139 101" fill="none" xmlns="http://www.w3.org/2000/svg">
<path d="M46.4686 88.6792C46.4686 88.6792 56 67 54.3989 67.7556C52.7978 68.5113 45.7654 74.0647 45.7654 74.0647C48.5325 78.1601 36.6397 90.6715 38.4992 91.9998C40.3587 93.328 43.0373 95.8738 44.1442 96.9806C44.919 96.9806 46.4686 96.3165 46.4686 93.6601V88.6792Z" fill="#7C7979" stroke="black" stroke-width="4"/>
<path d="M109 88C110.594 85.0779 91.7016 70.7425 92.5871 66.7578H81.2969C81.2969 71.0745 102.027 85.8748 100.699 88C99.0389 90.6565 96.7139 92.3167 96.3819 94.9732C96.0498 97.6296 99.3703 98.9579 102.359 98.2937C105.347 97.6296 107.008 91.6526 109 88Z" fill="#7C7979" stroke="black" stroke-width="4"/>
<path d="M98.2315 2.00785C89.598 2.33991 87.2734 9.31309 85.9452 11.6375C85.0859 13.1412 85.3268 20.8262 85.6846 26.58C82.451 28.6831 75.1204 33.1547 71.667 34.2173C68.2136 35.2799 58.4954 34.6601 54.068 34.2173C50.5261 33.7746 42.2468 33.5532 37.4652 36.2097C32.6836 38.8661 28.8317 43.0722 27.5035 44.8431H22.5226C21.4158 44.8431 18.6708 44.4447 16.5456 42.8508C13.8892 40.8585 10.9007 36.2097 8.90833 32.8891C7.31446 30.2326 6.69462 21.3778 6.58393 17.2825C5.47703 19.2748 3.06399 24.322 2.26706 28.5724C1.27089 33.8853 3.26323 41.5226 4.92351 44.8431C6.58379 48.1637 10.9005 52.4804 14.2211 55.801C16.8775 58.4574 20.8623 58.4574 22.5226 58.1254C22.5226 59.5643 22.8547 62.907 24.1828 64.7665C25.8429 67.0909 27.5035 68.0871 27.5035 71.0756C27.5035 74.0641 33.5 80.5 34.3397 83.5C34.9841 85.8023 35.789 87.6679 34.3397 90.023C33.4542 91.4619 33.5428 94.6718 34.3397 96C35.3359 97.6603 38.6565 96.6641 40.9808 96C43.3052 95.3359 43.1101 76.0564 45.7666 73.4C48.423 70.7435 52.7398 68.0871 56.3924 66.4268C59.3145 65.0986 81.518 65.8734 92.2545 66.4268L98.5635 91.855C101.331 94.0687 107.263 98.2969 108.857 97.5C110.85 96.5038 109.521 89.1986 108.857 88.2024C108.193 87.2063 110.518 61.4459 108.857 58.1254C107.197 54.8048 108.525 37.8699 108.857 36.2097C109.189 34.5494 136.418 19.2748 136.418 15.6222C136.418 11.9695 106.865 1.67579 98.2315 2.00785Z" fill="#7C7979"/>
<path d="M99.8915 15.6222C99.8915 20.4923 100.157 29.3131 99.6246 30.2326C98.6935 31.8403 96.5712 34.2173 92.2545 34.2173C88.8011 34.2173 87.0064 32.1724 85.9452 30.2326C85.8605 29.1949 85.7692 27.9415 85.6846 26.58M85.6846 26.58C85.3268 20.8262 85.0859 13.1412 85.9452 11.6375C87.2734 9.31309 89.598 2.33991 98.2315 2.00785C106.865 1.67579 136.418 11.9695 136.418 15.6222C136.418 19.2748 109.189 34.5494 108.857 36.2097C108.525 37.8699 107.197 54.8048 108.857 58.1254C110.518 61.4459 108.193 87.2063 108.857 88.2024C109.521 89.1986 110.85 96.5038 108.857 97.5C107.263 98.2969 101.331 94.0688 98.5635 91.855L92.2545 66.4268C81.518 65.8734 59.3145 65.0986 56.3924 66.4268C52.7398 68.0871 48.423 70.7435 45.7666 73.4C43.1101 76.0564 43.3052 95.3359 40.9808 96C38.6565 96.6641 35.3359 97.6603 34.3397 96C33.5428 94.6718 33.4542 91.4619 34.3397 90.023C35.789 87.6679 34.9841 85.8023 34.3397 83.5C33.5 80.5 27.5035 74.0641 27.5035 71.0756C27.5035 68.0871 25.8429 67.0909 24.1828 64.7665C22.8547 62.907 22.5226 59.5643 22.5226 58.1254C20.8623 58.4574 16.8775 58.4574 14.2211 55.801C10.9005 52.4804 6.58379 48.1637 4.92351 44.8431C3.26323 41.5226 1.27089 33.8853 2.26706 28.5724C3.06399 24.322 5.47703 19.2748 6.58393 17.2825C6.69462 21.3778 7.31446 30.2326 8.90833 32.8891C10.9007 36.2097 13.8892 40.8585 16.5456 42.8508C18.6708 44.4447 21.4158 44.8431 22.5226 44.8431H27.5035C28.8317 43.0722 32.6836 38.8661 37.4652 36.2097C42.2468 33.5532 50.5261 33.7746 54.068 34.2173C58.4954 34.6601 68.2136 35.2799 71.667 34.2173C75.1204 33.1547 82.451 28.6831 85.6846 26.58Z" stroke="black" stroke-width="4" stroke-linecap="round"/>
</svg>
