<svg width="139" height="98" viewBox="0 0 139 98" fill="none" xmlns="http://www.w3.org/2000/svg">
<path d="M98.2315 2.00785C89.598 2.33991 87.2734 9.31309 85.9452 11.6375C85.0859 13.1412 85.3268 20.8262 85.6846 26.58C82.451 28.6831 75.1204 33.1547 71.667 34.2173C68.2136 35.2799 58.4954 34.6601 54.068 34.2173C50.5261 33.7746 42.2468 33.5532 37.4652 36.2097C32.6836 38.8661 28.8317 43.0722 27.5035 44.8431H22.5226C21.4158 44.8431 18.6708 44.4447 16.5456 42.8508C13.8892 40.8585 10.9007 36.2097 8.90833 32.8891C7.31446 30.2326 6.69462 21.3778 6.58393 17.2825C5.47703 19.2748 3.06399 24.3221 2.26706 28.5724C1.27089 33.8853 3.26323 41.5226 4.92351 44.8431C6.58379 48.1637 10.9005 52.4804 14.2211 55.801C16.8775 58.4574 20.8623 58.4574 22.5226 58.1254C22.5226 59.5643 22.8547 62.907 24.1828 64.7665C25.8429 67.0909 27.5035 68.0871 27.5035 71.0756V81.0373C27.5035 83.4281 24.1829 87.3463 22.5226 89.0066C21.6372 90.4455 20.0654 93.6554 20.8624 94.9836C21.8585 96.6439 25.1791 95.6478 27.5035 94.9836C29.8279 94.3195 43.1101 76.0564 45.7666 73.4C48.423 70.7435 52.7398 68.0871 56.3924 66.4268C59.3145 65.0986 81.518 65.8734 92.2545 66.4268L111.182 86.0181C113.949 88.2318 119.882 92.46 121.475 91.6631C123.468 90.6669 122.14 83.3617 121.475 82.3655C120.811 81.3693 110.518 61.4459 108.857 58.1254C107.197 54.8048 108.525 37.8699 108.857 36.2097C109.189 34.5494 136.418 19.2748 136.418 15.6222C136.418 11.9695 106.865 1.67579 98.2315 2.00785Z" fill="#7C7979"/>
<path d="M99.8915 15.6222C99.8915 20.4923 100.157 29.3131 99.6246 30.2326C98.6935 31.8403 96.5712 34.2173 92.2545 34.2173C88.8011 34.2173 87.0064 32.1724 85.9452 30.2326C85.8605 29.1949 85.7692 27.9415 85.6846 26.58M85.6846 26.58C85.3268 20.8262 85.0859 13.1412 85.9452 11.6375C87.2734 9.31309 89.598 2.33991 98.2315 2.00785C106.865 1.67579 136.418 11.9695 136.418 15.6222C136.418 19.2748 109.189 34.5494 108.857 36.2097C108.525 37.8699 107.197 54.8048 108.857 58.1254C110.518 61.4459 120.811 81.3693 121.475 82.3655C122.14 83.3617 123.468 90.6669 121.475 91.6631C119.882 92.46 113.949 88.2318 111.182 86.0181L92.2545 66.4268C81.518 65.8734 59.3145 65.0986 56.3924 66.4268C52.7398 68.0871 48.423 70.7435 45.7666 73.4C43.1101 76.0564 29.8279 94.3195 27.5035 94.9836C25.1791 95.6478 21.8585 96.6439 20.8624 94.9836C20.0654 93.6554 21.6372 90.4455 22.5226 89.0066C24.1829 87.3463 27.5035 83.4281 27.5035 81.0373C27.5035 78.0488 27.5035 74.0641 27.5035 71.0756C27.5035 68.0871 25.8429 67.0909 24.1828 64.7665C22.8547 62.907 22.5226 59.5643 22.5226 58.1254C20.8623 58.4574 16.8775 58.4574 14.2211 55.801C10.9005 52.4804 6.58379 48.1637 4.92351 44.8431C3.26323 41.5226 1.27089 33.8853 2.26706 28.5724C3.06399 24.322 5.47703 19.2748 6.58393 17.2825C6.69462 21.3778 7.31446 30.2326 8.90833 32.8891C10.9007 36.2097 13.8892 40.8585 16.5456 42.8508C18.6708 44.4447 21.4158 44.8431 22.5226 44.8431H27.5035C28.8317 43.0722 32.6836 38.8661 37.4652 36.2097C42.2468 33.5532 50.5261 33.7746 54.068 34.2173C58.4954 34.6601 68.2136 35.2799 71.667 34.2173C75.1204 33.1547 82.451 28.6831 85.6846 26.58Z" stroke="black" stroke-width="4" stroke-linecap="round"/>
<path d="M87.938 82.3645C89.5319 79.4424 91.7013 70.7425 92.5868 66.7578H81.2969C81.2969 71.0745 80.9649 80.2393 79.637 82.3645C77.977 85.0209 75.652 86.6812 75.3199 89.3376C74.9878 91.9941 78.3084 93.3223 81.2969 92.6582C84.2854 91.9941 85.9457 86.0171 87.938 82.3645Z" fill="#7C7979" stroke="black" stroke-width="4"/>
<path d="M64.3608 84.6907L54.3991 67.7559L45.7656 74.0649C48.5328 78.1603 54.5319 86.6831 56.3914 88.0113C58.2509 89.3395 60.9295 91.8853 62.0364 92.9921C62.8112 92.9921 64.3608 92.328 64.3608 89.6716V84.6907Z" fill="#7C7979" stroke="black" stroke-width="4"/>
</svg>
