<svg width="660" height="136" viewBox="0 0 660 136" fill="none" xmlns="http://www.w3.org/2000/svg">
<path d="M0.330916 6.90024C-0.240373 6.17945 -0.0118574 2.81582 0.559432 2.21517C2.84459 2.21517 8.21471 2.57556 15.9842 2.57556C24.7821 2.57556 28.7811 2.21517 31.8661 2.21517C32.4374 2.93595 32.3231 6.41972 31.7518 6.90024C29.1239 7.38075 26.953 7.86127 25.5819 8.22166C23.2968 8.94244 22.3117 10.9316 22.1974 14.4154C21.9689 18.4998 22.0832 22.7043 22.0832 34.8374C22.0832 35.3179 22.4259 36.0387 22.883 36.279C23.9113 36.3991 26.5392 36.3991 41.3927 36.3991C55.9035 36.279 61.4586 36.279 62.4869 36.1589C62.944 36.1589 63.2868 35.6783 63.2868 35.1978C63.2868 28.9511 63.2868 17.5387 63.1725 12.9738C63.0582 11.1719 62.3349 8.70218 60.7353 8.10153C59.25 7.38075 56.8505 7.02036 53.1943 6.53985C52.3945 5.9392 52.623 2.45543 53.3085 1.85478C56.165 1.85478 62.5634 2.21517 68.7334 2.21517C74.789 2.21517 82.4443 1.85478 84.1582 1.85478C84.8437 2.57556 84.8437 5.9392 84.1582 6.53985C81.416 6.90023 79.2451 7.26062 77.6455 7.86127C75.0175 8.82231 74.9411 11.6524 74.7125 15.4965C74.484 19.7011 74.484 25.1069 74.484 38.9218C74.484 49.6134 74.484 62.3471 74.8268 66.5517C75.0553 69.7952 76.2744 73.253 78.5595 73.9738C80.2734 74.4543 82.9013 75.055 86.6718 75.4154C87.1289 76.1361 86.9004 79.8602 85.9863 80.2206C83.2441 80.2206 75.0175 79.8602 68.7334 79.8602C62.4492 79.8602 56.5078 80.1004 53.3085 80.2206C52.7372 79.74 52.7372 76.2563 53.3085 75.4154C57.079 75.055 59.0214 74.5745 60.621 74.0939C62.5634 73.3732 62.944 69.9153 63.1725 66.9121C63.401 63.1881 63.2868 51.7757 63.2868 44.2076C63.2868 43.9673 62.944 43.3666 62.3727 43.3666C59.859 43.2465 47.7912 43.2465 41.2785 43.2465C32.3664 43.2465 23.5685 43.2465 22.5402 43.4868C22.3117 43.4868 22.0832 43.9673 22.0832 44.0874C22.0832 50.8147 22.0832 63.188 22.1974 65.5906C22.4259 69.6751 23.5598 73.0128 26.6447 73.8537C28.3586 74.3342 30.758 74.9348 34.1858 75.4154C34.757 76.1361 34.0715 79.8602 33.5002 80.2206C32.2434 80.2206 26.1877 79.8602 17.0471 79.8602C8.70624 79.8602 2.76483 80.2206 0.593932 80.2206C0.0226424 79.6199 0.0226424 76.1361 0.479674 75.4154C3.45038 74.9348 5.39276 74.6946 7.10663 74.2141C10.3059 73.253 10.6574 69.3147 10.8859 63.7887C11.0001 59.7043 11.0001 50.6946 11.0001 40.2433C11.0001 28.5907 11.0001 16.818 10.8859 14.6556C10.6574 11.292 10.4999 9.1827 7.87194 8.34179C6.04381 7.74114 3.6444 7.38075 0.330916 6.90024Z" fill="white"/>
<path d="M175.551 6.90024C174.98 6.29959 175.094 2.57556 175.78 2.21517C179.322 2.21517 184.578 2.57556 189.948 2.57556C195.318 2.57556 202.402 2.09504 203.887 2.09504C204.459 2.45544 204.459 6.41972 203.773 6.90024C198.174 7.86127 197.146 8.70218 196.918 11.1048C196.689 13.6275 196.575 19.8743 196.689 24.4392C197.032 37.0528 205.944 38.6145 212.914 38.6145C217.255 38.6145 221.369 37.7736 225.254 36.0918C225.825 35.8515 228.675 35.6113 228.675 35.0106C228.675 27.082 228.79 18.0723 228.561 13.3873C228.333 9.90348 228.218 8.82231 224.791 7.86128C223.419 7.50089 220.449 7.02037 218.164 6.78011C217.478 6.05933 217.592 2.33531 218.278 2.09504C221.706 2.09504 228.333 2.45544 234.388 2.45544C239.187 2.45544 246.385 2.09504 249.813 2.09504C250.499 2.33531 250.499 6.29959 249.927 6.78011C247.185 7.1405 245.585 7.50089 244.1 7.86128C241.586 8.58206 240.33 9.42296 239.987 13.7476C239.644 18.9132 239.644 29.2444 239.644 38.4944C239.644 38.4944 239.53 61.4392 239.873 66.3645C240.215 69.0073 239.616 73.3732 242.815 74.2141C244.186 74.5745 246.014 74.9348 248.413 75.4154C249.213 75.7757 249.099 79.8602 248.299 80.2206C245.1 80.2206 238.587 79.8602 232.76 79.8602C227.276 79.8602 220.306 80.2206 216.421 80.2206C215.85 79.4998 215.736 75.6556 216.421 75.5355C219.163 75.1751 221.334 74.8147 222.934 74.4543C226.933 73.4933 228.447 68.8872 228.561 61.9197C228.675 55.1924 228.675 49.2712 228.675 44.2258C228.675 43.6251 225.825 43.7452 225.368 43.9855C220.112 46.3881 214.163 46.8024 207.878 46.8024C199.195 46.8024 192.804 43.7801 188.691 38.0139C186.977 35.6113 185.72 31.647 185.72 23.2379C185.72 23.2379 185.606 17.1113 185.606 14.2282C185.606 10.6243 184.806 8.82231 181.379 7.98141C179.893 7.62102 178.179 7.38075 175.551 6.90024Z" fill="white"/>
<path d="M248.299 75.4154C256.754 74.2141 258.9 71.3569 262.899 61.6264C267.927 49.0127 279.01 18.8602 281.524 11.0517C282.438 8.28874 283.247 4.01712 283.59 2.09504C284.162 2.21517 285.647 2.21517 287.818 2.21517C290.56 2.21517 291.817 2.21517 292.388 2.09504C292.845 4.49764 293.863 7.92835 294.663 10.3309C296.948 17.0582 309.631 52.1361 314.087 62.8277C317.743 71.3569 319.685 74.2141 328.368 75.4154C329.054 75.8959 328.711 79.6199 328.14 80.2206C325.169 80.1004 319.685 79.8602 313.172 79.8602C306.317 79.8602 298.89 80.2206 296.605 80.2206C296.033 79.6199 295.919 76.016 296.605 75.4154C298.661 75.2952 301.632 74.6946 303.346 74.0939C304.717 73.4933 303.918 69.7952 303.575 68.9543C302.433 64.6296 290.55 30.5128 285.751 17.6589C285.637 17.5387 285.294 17.5387 285.18 17.6589C280.267 31.8342 272.611 54.4186 269.184 65.7108C268.041 69.5549 268.066 73.4933 271.836 74.4543C273.322 74.8147 275.835 75.1751 277.892 75.4154C278.463 76.016 278.349 79.6199 277.549 80.2206C275.264 80.2206 269.323 79.8602 261.667 79.8602C254.241 79.8602 250.47 80.2206 248.299 80.2206C247.842 79.6199 247.614 75.8959 248.299 75.4154Z" fill="white"/>
<path d="M326.368 6.65998C325.796 5.9392 326.025 2.69569 326.71 2.09504C329.795 2.09504 339.466 2.45544 345.979 2.45544H369.059C373.515 2.45544 379.571 2.33531 382.313 2.09504C382.541 2.21517 382.884 2.57556 382.884 2.81582C382.084 6.17946 381.056 14.8288 380.942 19.9944C380.256 20.8353 376.371 20.7152 375.8 20.2346C375.686 16.871 375.115 15.1892 374.543 13.147C373.629 10.1437 372.487 9.06258 369.288 8.82231C367.574 8.70218 352.606 8.70218 351.578 8.82231C350.663 9.06258 349.941 10.3157 349.941 11.0365C349.941 19.3255 349.718 28.7108 349.718 36.7595C349.718 36.9998 350.06 37.6004 350.403 37.6004C356.344 37.6004 362.971 37.7205 367.542 37.24C369.256 36.9998 370.17 35.9186 370.741 34.1167C371.198 32.6751 371.655 30.753 371.998 28.8309C373.14 28.3504 376.682 28.5907 377.254 29.3115C377.025 32.0744 376.454 36.6394 376.454 41.2043C376.454 45.2887 376.568 49.253 376.682 52.977C375.997 53.5777 371.998 53.6978 371.312 52.977C370.741 50.0939 370.741 49.0127 370.17 47.4511C369.713 45.6491 368.57 44.8082 366.97 44.5679C363.2 44.0874 355.659 44.2076 350.403 44.2076C350.06 44.2076 349.718 44.6881 349.718 45.1686C349.718 52.977 349.718 63.2751 349.946 68.0803C349.946 70.0024 351.089 72.2848 352.574 72.8855C354.859 73.6063 369.37 73.4861 371.884 73.4861C374.969 73.4861 376.682 72.5251 379.082 68.9212C380.91 66.3985 383.081 61.4731 384.338 58.59C385.252 58.4699 388.565 59.5511 389.137 60.392C388.565 64.3563 386.166 73.366 384.109 77.6907C383.538 79.1322 382.624 80.0933 376.797 80.0933C364.685 80.0933 353.602 79.6127 345.261 79.6127C337.606 79.6127 329.837 79.9731 325.038 79.9731C324.466 79.4926 324.352 75.8887 324.924 75.1679C328.923 74.6874 332.579 74.327 334.75 73.7264C337.492 73.0056 337.204 70.2757 337.432 66.4316C337.661 64.3894 337.546 51.7757 337.546 38.4413C337.546 27.8699 337.546 17.6589 337.432 15.4965C337.204 11.5322 337.981 8.82231 335.353 7.98141C333.753 7.50089 329.453 7.1405 326.368 6.65998Z" fill="white"/>
<path d="M435.343 75.6485L440.827 74.8075C445.283 73.9666 446.001 69.3147 446.23 63.0679C446.344 57.542 446.344 46.6101 446.344 41.5647C440.06 41.5647 434.187 46.3368 431.445 50.6615C428.131 55.9472 424.018 63.155 420.362 69.4017C416.706 73.9666 415.106 78.0511 406.994 79.4926C404.137 80.0933 398.996 80.0933 392.826 80.0933C392.254 79.4926 392.369 75.8887 392.826 75.2881C401.738 73.7264 404.366 72.405 407.679 68.4407C409.622 66.0381 417.962 52.8238 420.019 50.0608C423.561 44.8952 425.161 43.3335 428.246 41.5316C428.36 41.1712 428.523 37.961 428.409 37.6006C424.867 34.8376 422.353 30.1526 418.354 21.8636C413.213 12.1331 411.842 10.6916 408.414 10.6916C405.557 10.6916 402.587 11.6526 399.845 12.974C399.387 13.2143 398.588 11.8928 398.588 11.5325C398.816 9.12986 399.387 4.80519 400.302 2.76299C400.53 2.16234 401.76 1.20064 404.441 0.306669C404.441 0.306669 405.443 0 406.586 0C413.784 0 417.669 5.16558 420.982 12.3734C424.981 21.1428 427.723 27.3896 430.351 30.9935C433.322 35.0779 439.489 36.9998 446.458 36.9998C446.458 29.792 446.458 19.7011 446.23 14.6556C446.116 11.4121 445.632 8.76913 442.319 8.04835L436.377 6.84705C435.806 6.24641 435.806 2.64251 436.606 2.16199C438.891 2.16199 445.746 2.52238 450.888 2.52238C457.058 2.52238 464.256 2.04186 466.313 2.16199C467.113 2.76264 467.113 6.36653 466.313 6.96718C464.142 7.32757 462.657 7.56783 461.171 7.92822C457.629 8.649 457.199 11.0517 457.084 15.3764C456.97 20.1816 456.856 29.5517 456.856 36.5192C456.856 36.7595 457.084 36.9998 457.541 36.9998C462.912 36.9998 468.102 35.4379 470.959 31.9542C473.244 29.1912 475.415 24.7464 478.957 18.2594C486.269 4.92497 490.382 0.6003 497.809 0.6003C498.723 0.6003 501.008 1.4412 501.922 2.16199C502.265 2.28212 502.722 3.72368 502.722 3.96393C502.722 5.88601 501.351 11.412 500.437 13.4542C500.323 14.0548 499.409 14.2951 499.18 14.175C496.781 12.6133 493.924 11.7724 491.982 11.7724C490.04 11.7724 487.754 13.9347 483.87 21.0224C478.043 31.4737 476.786 33.9964 473.244 37.2399C473.129 37.4801 471.252 38.3212 471.481 38.5615C474.909 40.7238 478.913 44.5349 481.313 48.2589C483.37 51.5024 488.625 60.7524 491.368 64.2361C497.88 72.7654 500.28 74.8076 510.449 75.4082C510.906 75.6485 510.563 80.0933 509.992 80.2134C507.821 80.6939 496.852 80.6939 494.681 80.4537C490.225 79.7329 488.283 77.8108 486.454 76.2491C481.884 71.8043 474.914 58.4699 470.573 51.3823C466.802 45.1355 462.797 41.805 457.199 41.805C457.084 41.805 456.856 42.0452 456.856 42.2855C456.856 48.292 456.97 60.6653 457.084 65.951C457.199 70.0355 457.623 73.7264 460.708 74.5673C462.079 74.9277 464.593 75.2881 467.107 75.6485C467.906 76.129 467.449 79.9731 466.878 80.4537C464.25 80.4537 456.138 80.0933 451.796 80.0933C447.568 80.0933 439.113 80.3335 435.686 80.4537C435 79.9731 434.886 76.2491 435.343 75.6485Z" fill="white"/>
<path d="M509.992 75.3799C512.277 75.0195 515.257 74.6874 516.628 74.4472C521.084 73.6063 521.247 70.8764 521.476 64.6296C521.59 58.9835 521.59 44.6881 521.59 38.6816C521.59 31.3537 521.704 19.4608 521.476 14.5355C521.362 11.292 521.14 8.36747 517.827 7.64669C516.227 7.2863 514.056 7.04604 511.657 6.56553C510.971 5.96488 511.2 2.36098 512 1.88046C514.285 1.88046 520.683 2.24085 526.625 2.24085C532.795 2.24085 541.651 2.04186 543.822 2.16199C544.393 2.64251 544.507 6.36653 543.708 6.96718C541.422 7.32757 539.422 7.2863 537.936 7.64669C534.394 8.36747 533.879 11.2178 533.765 15.5425C533.651 20.2276 533.651 29.9581 533.651 36.9256C533.651 37.1659 533.879 37.4061 534.336 37.4061C538.907 37.4061 543.074 37.7679 546.502 34.2841C549.816 30.8004 554.84 22.9446 557.696 17.779C565.351 3.60368 569.465 0.360173 576.663 0.360173C577.348 0.360173 579.519 0.720565 580.548 1.56147C580.89 1.80173 581.347 2.76277 581.347 3.00303C581.347 5.40562 579.976 11.0517 579.062 13.0939C578.948 13.5745 578.148 13.8147 577.92 13.8147C575.863 12.8537 572.55 11.5322 570.607 11.5322C568.551 11.5322 566.494 12.6134 562.038 20.7822C557.239 29.4316 552.558 35.8458 548.902 38.9692C548.787 39.2094 547.07 38.4413 547.298 38.6816C549.583 39.8829 555.589 45.3758 560.73 52.7037C563.13 55.9472 568.271 63.0348 571.242 66.7589C576.041 72.8855 578.212 74.4472 588.495 75.4082C588.952 75.5283 588.724 80.0933 588.152 80.2134C585.639 80.6939 574.441 80.3335 572.385 79.9731C567.815 79.2524 566.786 78.1712 564.844 76.6095C560.159 72.6452 556.16 65.918 546.791 51.2621C542.678 45.0154 536.964 42.4516 533.994 42.3314C533.879 42.3314 533.651 42.5717 533.651 42.812C533.651 48.8185 533.651 60.9516 533.765 66.1171C533.879 70.2016 533.996 73.366 537.081 74.2069C538.452 74.5673 542.202 75.0478 544.715 75.4082C545.401 75.8887 545.172 79.7329 544.601 80.2134C542.087 79.9732 534.022 80.2134 528.195 80.2134C522.939 80.2134 513.762 80.065 510.334 80.1851C509.649 79.7046 509.535 76.1007 509.992 75.3799Z" fill="white"/>
<path d="M578.008 75.9746C586.463 74.7733 588.063 74.0525 592.062 64.322C597.089 51.7084 608.318 19.7388 610.832 11.9304C611.746 9.16743 614.063 4.01686 614.406 2.09479C615.299 2.09479 616.702 2.09479 618.873 2.09479C621.615 2.09479 622.769 2.21491 623.34 2.09479C623.912 4.49738 625.602 8.83571 626.401 11.2383C628.687 17.9656 641.94 54.8318 646.396 65.5233C650.053 74.0525 650.967 74.7733 659.65 75.9746C660.336 76.4551 659.879 80.1792 659.422 80.7798C656.451 80.6597 650.967 80.4194 644.454 80.4194C637.599 80.4194 630.172 80.7798 627.887 80.7798C627.43 80.1792 627.315 76.5753 627.887 75.9746C630.4 75.6142 632.8 75.2538 634.514 74.6532C635.885 74.0525 636.113 72.4908 635.885 71.6499C634.399 66.6045 630.857 56.6474 629.029 51.9623C628.801 51.3617 628.115 51.1214 627.887 51.1214C625.83 51.0013 620.574 51.0013 616.347 51.0013C609.034 51.0013 606.071 50.8811 604.814 51.0013C604.243 51.0013 603.684 51.0327 603.684 51.2729C601.285 58.1203 597.775 68.6467 597.775 71.0493C597.775 73.3318 598.232 74.1727 601.545 75.0136C603.03 75.374 605.544 75.7344 607.601 75.9746C608.058 76.5753 607.829 80.1792 607.258 80.7798C604.973 80.7798 599.031 80.4194 591.376 80.4194C583.949 80.4194 580.179 80.7798 578.008 80.7798C577.551 80.1792 577.551 76.5753 578.008 75.9746ZM617.086 18.1894C616.972 18.1894 614.406 18.1894 614.406 18.1894C612.463 24.5563 608.832 35.6247 606.661 42.8324C606.661 43.1928 606.318 44.0337 606.661 44.1539C607.917 44.274 614.747 44.1539 618.061 44.1539C620.917 44.1539 624.116 44.1539 625.602 44.0337C625.944 44.0337 626.287 43.4331 626.173 42.8324C624.002 36.5857 619.029 22.9946 617.086 18.1894Z" fill="white"/>
<path d="M145.336 79.8602C145.336 81.9966 117.488 86.5588 101.782 68.714C94.6984 60.6653 91.7277 50.8147 91.7277 39.4024C91.7277 30.2725 94.3556 22.4641 99.4972 15.6167C101.673 13.1913 107.095 7.80686 111.384 5.67182L111.697 5.51593C117.019 2.86561 123.91 -0.565999 124.786 1.20108C125.229 2.09504 124.661 3.66843 122.999 4.77749C120.319 6.56578 117.996 8.83615 117.638 9.24823C111.96 15.6151 110.49 25.4301 110.49 36.9668C110.49 50.061 115.851 59.7589 121.212 66.9121C123.677 69.316 130.147 75.1173 136.401 77.2037C141.762 78.992 145.336 78.5362 145.336 79.8602Z" fill="white"/>
<path d="M164.992 42.5257C163.205 28.9195 159.871 17.0582 151.073 10.8115C149.756 9.39624 146.765 6.38695 145.336 5.67164C143.549 4.77749 140.868 2.989 140.868 2.09504C140.868 1.20109 141.762 0.306748 145.336 1.2009C148.91 2.09504 159.481 7.90398 161.79 10.8115C164.099 13.719 173.875 23.9675 172.889 42.5257C172.14 56.6381 163.669 67.8317 162.312 66.4737C160.955 65.1156 163.634 61.2154 164.099 58.4264C164.992 53.0615 165.836 48.9497 164.992 42.5257Z" fill="white"/>
<path d="M0 129.798V107.353H13.8461V110.47H3.7254V116.426H6.44184C8.59429 116.426 10.3225 116.708 11.6264 117.271C12.9302 117.823 13.8719 118.596 14.4515 119.589C15.031 120.581 15.3207 121.723 15.3207 123.012C15.3207 125.151 14.6325 126.819 13.2562 128.017C11.8902 129.204 9.67052 129.798 6.59706 129.798H0ZM3.7254 126.727H6.36423C8.1131 126.727 9.41181 126.436 10.2604 125.852C11.1089 125.259 11.5332 124.312 11.5332 123.012C11.5332 122.101 11.3263 121.395 10.9123 120.894C10.4984 120.382 9.87749 120.024 9.04962 119.819C8.2321 119.614 7.19727 119.512 5.94512 119.512H3.7254V126.727Z" fill="white"/>
<path d="M38.8354 129.798H35.11V110.485H28.6527C28.5182 111.539 28.3733 112.665 28.2181 113.862C28.0628 115.05 27.9024 116.242 27.7369 117.439C27.5713 118.637 27.4005 119.773 27.2246 120.848C27.059 121.922 26.8883 122.869 26.7124 123.688C26.4433 125.059 26.0915 126.226 25.6568 127.188C25.2326 128.14 24.6582 128.866 23.9338 129.368C23.2095 129.869 22.2626 130.12 21.0932 130.12C20.7 130.12 20.3171 130.084 19.9446 130.013C19.572 129.951 19.2357 129.869 18.9356 129.767V126.727C19.184 126.819 19.4478 126.901 19.7272 126.973C20.017 127.034 20.3223 127.065 20.6431 127.065C21.1812 127.065 21.6106 126.871 21.9314 126.482C22.2626 126.083 22.5368 125.52 22.7541 124.793C22.9714 124.056 23.1784 123.186 23.375 122.183C23.4889 121.579 23.6286 120.781 23.7941 119.788C23.9597 118.785 24.1408 117.629 24.3374 116.319C24.534 115.009 24.7358 113.596 24.9428 112.082C25.1601 110.557 25.3671 108.98 25.5637 107.353H38.8354V129.798Z" fill="white"/>
<path d="M60.7824 129.798L58.5627 123.565H49.8856L47.6659 129.798H43.7387L52.1829 107.261H56.3119L64.7406 129.798H60.7824ZM57.6003 120.402L55.4427 114.262C55.3599 113.995 55.2409 113.622 55.0856 113.141C54.9304 112.65 54.7752 112.153 54.62 111.652C54.4647 111.14 54.3354 110.71 54.2319 110.362C54.1284 110.782 53.9991 111.253 53.8438 111.774C53.699 112.286 53.5541 112.767 53.4092 113.218C53.2747 113.668 53.1712 114.016 53.0988 114.262L50.9256 120.402H57.6003Z" fill="white"/>
<path d="M83.195 107.353V110.485H73.3693V129.798H69.6439V107.353H83.195Z" fill="white"/>
<path d="M108.898 118.545C108.898 120.274 108.676 121.851 108.231 123.273C107.796 124.686 107.139 125.903 106.26 126.927C105.38 127.94 104.278 128.723 102.953 129.276C101.629 129.828 100.076 130.105 98.2966 130.105C96.4856 130.105 94.9127 129.828 93.5777 129.276C92.2531 128.723 91.151 127.935 90.2714 126.912C89.4022 125.888 88.7502 124.665 88.3156 123.242C87.881 121.82 87.6637 120.244 87.6637 118.514C87.6637 116.201 88.0465 114.185 88.8123 112.465C89.5884 110.736 90.763 109.395 92.3359 108.443C93.9192 107.481 95.9165 107 98.3276 107C100.687 107 102.648 107.476 104.211 108.428C105.773 109.38 106.943 110.72 107.719 112.45C108.505 114.169 108.898 116.201 108.898 118.545ZM91.5753 118.545C91.5753 120.274 91.8133 121.774 92.2894 123.043C92.7654 124.302 93.4949 125.274 94.478 125.96C95.4715 126.635 96.7443 126.973 98.2966 126.973C99.8592 126.973 101.132 126.635 102.115 125.96C103.098 125.274 103.823 124.302 104.288 123.043C104.754 121.774 104.987 120.274 104.987 118.545C104.987 115.914 104.454 113.857 103.388 112.373C102.332 110.879 100.646 110.132 98.3276 110.132C96.7754 110.132 95.4973 110.47 94.4936 111.145C93.5001 111.821 92.7654 112.788 92.2894 114.047C91.8133 115.295 91.5753 116.795 91.5753 118.545Z" fill="white"/>
<path d="M123.55 129.798H119.809V110.485H113.165V107.353H130.178V110.485H123.55V129.798Z" fill="white"/>
<path d="M135.562 107.353H142.315C145.243 107.353 147.453 107.773 148.943 108.612C150.433 109.451 151.178 110.899 151.178 112.957C151.178 113.816 151.023 114.594 150.712 115.29C150.412 115.976 149.972 116.544 149.393 116.994C148.813 117.434 148.099 117.731 147.251 117.885V118.038C148.13 118.192 148.912 118.463 149.595 118.852C150.288 119.241 150.831 119.798 151.225 120.525C151.628 121.252 151.83 122.193 151.83 123.35C151.83 124.721 151.499 125.888 150.837 126.85C150.185 127.812 149.248 128.544 148.027 129.046C146.816 129.547 145.378 129.798 143.712 129.798H135.562V107.353ZM139.288 116.61H142.858C144.545 116.61 145.714 116.339 146.366 115.797C147.018 115.254 147.344 114.461 147.344 113.417C147.344 112.353 146.956 111.585 146.18 111.114C145.414 110.644 144.193 110.408 142.516 110.408H139.288V116.61ZM139.288 119.589V126.712H143.215C144.954 126.712 146.175 126.379 146.878 125.714C147.582 125.049 147.934 124.148 147.934 123.012C147.934 122.316 147.773 121.712 147.453 121.201C147.142 120.689 146.63 120.295 145.916 120.019C145.202 119.732 144.239 119.589 143.029 119.589H139.288Z" fill="white"/>
<path d="M178.573 118.545C178.573 120.274 178.351 121.851 177.906 123.273C177.471 124.686 176.814 125.903 175.935 126.927C175.055 127.94 173.953 128.723 172.628 129.276C171.304 129.828 169.751 130.105 167.972 130.105C166.161 130.105 164.588 129.828 163.253 129.276C161.928 128.723 160.826 127.935 159.946 126.912C159.077 125.888 158.425 124.665 157.991 123.242C157.556 121.82 157.339 120.244 157.339 118.514C157.339 116.201 157.721 114.185 158.487 112.465C159.263 110.736 160.438 109.395 162.011 108.443C163.594 107.481 165.591 107 168.003 107C170.362 107 172.323 107.476 173.886 108.428C175.448 109.38 176.618 110.72 177.394 112.45C178.18 114.169 178.573 116.201 178.573 118.545ZM161.25 118.545C161.25 120.274 161.488 121.774 161.964 123.043C162.44 124.302 163.17 125.274 164.153 125.96C165.146 126.635 166.419 126.973 167.972 126.973C169.534 126.973 170.807 126.635 171.79 125.96C172.773 125.274 173.498 124.302 173.963 123.043C174.429 121.774 174.662 120.274 174.662 118.545C174.662 115.914 174.129 113.857 173.063 112.373C172.007 110.879 170.321 110.132 168.003 110.132C166.45 110.132 165.172 110.47 164.168 111.145C163.175 111.821 162.44 112.788 161.964 114.047C161.488 115.295 161.25 116.795 161.25 118.545Z" fill="white"/>
<path d="M191.952 107.353C194.88 107.353 197.017 107.947 198.363 109.134C199.708 110.321 200.381 111.984 200.381 114.123C200.381 115.096 200.225 116.022 199.915 116.902C199.615 117.772 199.118 118.545 198.425 119.22C197.731 119.885 196.816 120.413 195.677 120.801C194.549 121.19 193.158 121.385 191.502 121.385H189.08V129.798H185.355V107.353H191.952ZM191.704 110.408H189.08V118.314H191.114C192.283 118.314 193.277 118.181 194.094 117.915C194.912 117.639 195.532 117.204 195.957 116.61C196.381 116.017 196.593 115.234 196.593 114.262C196.593 112.962 196.195 111.995 195.398 111.36C194.611 110.725 193.38 110.408 191.704 110.408Z" fill="white"/>
<path d="M206.836 107.353H210.236V119.251C210.236 119.763 210.23 120.326 210.22 120.94C210.21 121.554 210.189 122.152 210.158 122.736C210.137 123.319 210.117 123.841 210.096 124.302C210.075 124.752 210.054 125.08 210.034 125.284H210.142L221.691 107.353H226.022V129.798H222.654V117.992C222.654 117.439 222.664 116.841 222.685 116.196C222.705 115.551 222.731 114.927 222.762 114.323C222.793 113.719 222.824 113.187 222.855 112.726C222.886 112.266 222.907 111.938 222.917 111.744H222.778L211.198 129.798H206.836V107.353Z" fill="white"/>
<path d="M241.775 129.798H238.035V110.485H231.391V107.353H248.404V110.485H241.775V129.798Z" fill="white"/>
<path d="M266.641 129.798H253.788V107.353H266.641V110.454H257.513V116.549H266.066V119.635H257.513V126.681H266.641V129.798Z" fill="white"/>
<path d="M290.512 129.798H286.787V110.485H280.33C280.195 111.539 280.05 112.665 279.895 113.862C279.74 115.05 279.579 116.242 279.414 117.439C279.248 118.637 279.077 119.773 278.902 120.848C278.736 121.922 278.565 122.869 278.389 123.688C278.12 125.059 277.768 126.226 277.334 127.188C276.909 128.14 276.335 128.866 275.611 129.368C274.886 129.869 273.94 130.12 272.77 130.12C272.377 130.12 271.994 130.084 271.621 130.013C271.249 129.951 270.913 129.869 270.613 129.767V126.727C270.861 126.819 271.125 126.901 271.404 126.973C271.694 127.034 271.999 127.065 272.32 127.065C272.858 127.065 273.288 126.871 273.608 126.482C273.94 126.083 274.214 125.52 274.431 124.793C274.648 124.056 274.855 123.186 275.052 122.183C275.166 121.579 275.306 120.781 275.471 119.788C275.637 118.785 275.818 117.629 276.014 116.319C276.211 115.009 276.413 113.596 276.62 112.082C276.837 110.557 277.044 108.98 277.241 107.353H290.512V129.798Z" fill="white"/>
<path d="M298.396 129.798V107.353H302.121V116.426H305.226C307.316 116.426 309.013 116.713 310.317 117.286C311.621 117.849 312.573 118.627 313.173 119.619C313.784 120.612 314.089 121.743 314.089 123.012C314.089 125.121 313.38 126.779 311.963 127.986C310.555 129.194 308.356 129.798 305.366 129.798H298.396ZM302.121 126.727H305.133C306.799 126.727 308.077 126.436 308.967 125.852C309.857 125.259 310.302 124.312 310.302 123.012C310.302 122.101 310.084 121.395 309.65 120.894C309.215 120.382 308.584 120.024 307.756 119.819C306.928 119.614 305.919 119.512 304.729 119.512H302.121V126.727Z" fill="white"/>
<path d="M338.442 129.798H334.732V119.665H324.27V129.798H320.545V107.353H324.27V116.534H334.732V107.353H338.442V129.798Z" fill="white"/>
<path d="M360.42 129.798L358.2 123.565H349.523L347.304 129.798H343.376L351.821 107.261H355.95L364.378 129.798H360.42ZM357.238 120.402L355.08 114.262C354.998 113.995 354.879 113.622 354.723 113.141C354.568 112.65 354.413 112.153 354.258 111.652C354.102 111.14 353.973 110.71 353.87 110.362C353.766 110.782 353.637 111.253 353.482 111.774C353.337 112.286 353.192 112.767 353.047 113.218C352.912 113.668 352.809 114.016 352.737 114.262L350.563 120.402H357.238Z" fill="white"/>
<path d="M376.406 120.801L370.803 129.798H366.581L372.992 119.926C372.267 119.671 371.569 119.302 370.896 118.821C370.234 118.34 369.69 117.685 369.266 116.856C368.852 116.017 368.645 114.968 368.645 113.709C368.645 111.641 369.37 110.065 370.818 108.98C372.277 107.896 374.383 107.353 377.136 107.353H383.95V129.798H380.225V120.801H376.406ZM380.225 110.408H377.291C376.246 110.408 375.361 110.531 374.637 110.777C373.913 111.012 373.364 111.391 372.992 111.913C372.619 112.424 372.433 113.1 372.433 113.939C372.433 115.147 372.836 116.083 373.643 116.749C374.451 117.414 375.682 117.746 377.338 117.746H380.225V110.408Z" fill="white"/>
<path d="M424.589 118.545C424.589 120.274 424.366 121.851 423.921 123.273C423.487 124.686 422.83 125.903 421.95 126.927C421.07 127.94 419.968 128.723 418.644 129.276C417.319 129.828 415.767 130.105 413.987 130.105C412.176 130.105 410.603 129.828 409.268 129.276C407.944 128.723 406.841 127.935 405.962 126.912C405.093 125.888 404.441 124.665 404.006 123.242C403.571 121.82 403.354 120.244 403.354 118.514C403.354 116.201 403.737 114.185 404.503 112.465C405.279 110.736 406.453 109.395 408.026 108.443C409.61 107.481 411.607 107 414.018 107C416.377 107 418.338 107.476 419.901 108.428C421.464 109.38 422.633 110.72 423.409 112.45C424.196 114.169 424.589 116.201 424.589 118.545ZM407.266 118.545C407.266 120.274 407.504 121.774 407.98 123.043C408.456 124.302 409.185 125.274 410.168 125.96C411.162 126.635 412.435 126.973 413.987 126.973C415.55 126.973 416.822 126.635 417.805 125.96C418.789 125.274 419.513 124.302 419.979 123.043C420.444 121.774 420.677 120.274 420.677 118.545C420.677 115.914 420.144 113.857 419.078 112.373C418.023 110.879 416.336 110.132 414.018 110.132C412.466 110.132 411.188 110.47 410.184 111.145C409.19 111.821 408.456 112.788 407.98 114.047C407.504 115.295 407.266 116.795 407.266 118.545Z" fill="white"/>
<path d="M437.967 107.353C440.896 107.353 443.033 107.947 444.378 109.134C445.723 110.321 446.396 111.984 446.396 114.123C446.396 115.096 446.241 116.022 445.93 116.902C445.63 117.772 445.134 118.545 444.44 119.22C443.747 119.885 442.831 120.413 441.693 120.801C440.565 121.19 439.173 121.385 437.517 121.385H435.096V129.798H431.37V107.353H437.967ZM437.719 110.408H435.096V118.314H437.129C438.298 118.314 439.292 118.181 440.109 117.915C440.927 117.639 441.548 117.204 441.972 116.61C442.396 116.017 442.609 115.234 442.609 114.262C442.609 112.962 442.21 111.995 441.413 111.36C440.627 110.725 439.395 110.408 437.719 110.408Z" fill="white"/>
<path d="M466.387 107.353V110.485H456.561V129.798H452.836V107.353H466.387Z" fill="white"/>
<path d="M486.006 129.798L483.786 123.565H475.109L472.889 129.798H468.962L477.406 107.261H481.535L489.964 129.798H486.006ZM482.824 120.402L480.666 114.262C480.583 113.995 480.464 113.622 480.309 113.141C480.154 112.65 479.999 112.153 479.843 111.652C479.688 111.14 479.559 110.71 479.455 110.362C479.352 110.782 479.222 111.253 479.067 111.774C478.922 112.286 478.777 112.767 478.633 113.218C478.498 113.668 478.395 114.016 478.322 114.262L476.149 120.402H482.824Z" fill="white"/>
<path d="M512.765 129.798H509.055V119.665H498.593V129.798H494.867V107.353H498.593V116.534H509.055V107.353H512.765V129.798Z" fill="white"/>
<path d="M520.695 107.353H524.094V119.251C524.094 119.763 524.089 120.326 524.079 120.94C524.068 121.554 524.048 122.152 524.017 122.736C523.996 123.319 523.975 123.841 523.955 124.302C523.934 124.752 523.913 125.08 523.892 125.284H524.001L535.55 107.353H539.881V129.798H536.512V117.992C536.512 117.439 536.523 116.841 536.543 116.196C536.564 115.551 536.59 114.927 536.621 114.323C536.652 113.719 536.683 113.187 536.714 112.726C536.745 112.266 536.766 111.938 536.776 111.744H536.636L525.057 129.798H520.695V107.353Z" fill="white"/>
<path d="M562.231 112.603C562.231 114.118 561.719 115.331 560.695 116.242C559.68 117.143 558.356 117.716 556.721 117.961V118.069C558.687 118.304 560.193 118.888 561.238 119.819C562.283 120.74 562.806 121.948 562.806 123.442C562.806 124.752 562.459 125.909 561.766 126.912C561.072 127.915 560.037 128.698 558.661 129.26C557.285 129.823 555.577 130.105 553.539 130.105C552.059 130.105 550.708 130.002 549.487 129.798C548.266 129.603 547.18 129.296 546.228 128.877V125.683C546.879 125.99 547.594 126.257 548.37 126.482C549.156 126.697 549.953 126.866 550.76 126.988C551.578 127.101 552.343 127.157 553.057 127.157C555.086 127.157 556.591 126.819 557.574 126.144C558.558 125.469 559.049 124.512 559.049 123.273C559.049 122.004 558.413 121.078 557.14 120.494C555.867 119.911 554.123 119.619 551.909 119.619H549.208V116.672H551.738C553.383 116.672 554.703 116.528 555.696 116.242C556.69 115.955 557.409 115.546 557.854 115.014C558.299 114.482 558.521 113.847 558.521 113.11C558.521 112.138 558.128 111.38 557.342 110.838C556.565 110.285 555.489 110.009 554.113 110.009C552.809 110.009 551.666 110.183 550.682 110.531C549.699 110.879 548.763 111.334 547.873 111.897L546.181 109.426C546.874 108.955 547.63 108.54 548.447 108.182C549.275 107.824 550.186 107.542 551.179 107.338C552.173 107.133 553.264 107.031 554.454 107.031C556.11 107.031 557.512 107.271 558.661 107.752C559.82 108.223 560.705 108.878 561.315 109.717C561.926 110.557 562.231 111.519 562.231 112.603Z" fill="white"/>
<path d="M583.324 129.798L581.105 123.565H572.428L570.208 129.798H566.281L574.725 107.261H578.854L587.283 129.798H583.324ZM580.142 120.402L577.985 114.262C577.902 113.995 577.783 113.622 577.628 113.141C577.472 112.65 577.317 112.153 577.162 111.652C577.007 111.14 576.877 110.71 576.774 110.362C576.67 110.782 576.541 111.253 576.386 111.774C576.241 112.286 576.096 112.767 575.951 113.218C575.817 113.668 575.713 114.016 575.641 114.262L573.468 120.402H580.142Z" fill="white"/>
<path d="M612.676 126.758V136H609.09V129.798H592.186V107.353H595.911V126.651H605.923V107.353H609.618V126.758H612.676Z" fill="white"/>
<path d="M618.262 107.353H621.661V119.251C621.661 119.763 621.656 120.326 621.646 120.94C621.635 121.554 621.615 122.152 621.584 122.736C621.563 123.319 621.542 123.841 621.522 124.302C621.501 124.752 621.48 125.08 621.459 125.284H621.568L633.117 107.353H637.448V129.798H634.079V117.992C634.079 117.439 634.09 116.841 634.11 116.196C634.131 115.551 634.157 114.927 634.188 114.323C634.219 113.719 634.25 113.187 634.281 112.726C634.312 112.266 634.333 111.938 634.343 111.744H634.203L622.624 129.798H618.262V107.353Z" fill="white"/>
<path d="M652.456 120.801L646.852 129.798H642.63L649.041 119.926C648.317 119.671 647.618 119.302 646.946 118.821C646.283 118.34 645.74 117.685 645.316 116.856C644.902 116.017 644.695 114.968 644.695 113.709C644.695 111.641 645.419 110.065 646.868 108.98C648.327 107.896 650.433 107.353 653.186 107.353H660V129.798H656.275V120.801H652.456ZM656.275 110.408H653.341C652.296 110.408 651.411 110.531 650.686 110.777C649.962 111.012 649.414 111.391 649.041 111.913C648.669 112.424 648.482 113.1 648.482 113.939C648.482 115.147 648.886 116.083 649.693 116.749C650.5 117.414 651.732 117.746 653.387 117.746H656.275V110.408Z" fill="white"/>
</svg>
