<svg width="364" height="46" viewBox="0 0 364 46" fill="none" xmlns="http://www.w3.org/2000/svg">
<path d="M0.182505 4.28672C-0.132569 3.89116 -0.00653954 2.04527 0.308535 1.71564C1.56883 1.71564 4.53054 1.91342 8.81555 1.91342C13.6677 1.91342 15.8732 1.71564 17.5746 1.71564C17.8897 2.11119 17.8267 4.02302 17.5116 4.28672C16.0623 4.55041 14.865 4.81411 14.1088 5.01189C12.8485 5.40744 12.3052 6.49905 12.2422 8.41087C12.1162 10.6523 12.1792 12.9597 12.1792 19.6181C12.1792 19.8818 12.3682 20.2774 12.6203 20.4092C13.1874 20.4751 14.6368 20.4751 22.8287 20.4751C30.8316 20.4092 33.8954 20.4092 34.4625 20.3433C34.7146 20.3433 34.9036 20.0796 34.9036 19.8159C34.9036 16.3878 34.9036 10.1249 34.8406 7.61977C34.7776 6.6309 34.3787 5.27559 33.4964 4.94596C32.6772 4.55041 31.3539 4.35264 29.3375 4.08894C28.8963 3.75932 29.0224 1.84749 29.4005 1.51787C30.9758 1.51787 34.5047 1.71564 37.9075 1.71564C41.2473 1.71564 45.4693 1.51787 46.4145 1.51787C46.7926 1.91342 46.7926 3.75932 46.4145 4.08894C44.9021 4.28671 43.7049 4.48449 42.8227 4.81411C41.3733 5.34151 41.3311 6.8946 41.2051 9.0042C41.0791 11.3116 41.0791 14.2782 41.0791 21.8595C41.0791 27.7269 41.0791 34.7149 41.2681 37.0223C41.3941 38.8022 42.0665 40.6998 43.3268 41.0954C44.272 41.3591 45.7213 41.6887 47.8008 41.8865C48.0529 42.282 47.9269 44.3257 47.4227 44.5235C45.9104 44.5235 41.3733 44.3257 37.9075 44.3257C34.4417 44.3257 31.1649 44.4576 29.4005 44.5235C29.0854 44.2598 29.0854 42.3479 29.4005 41.8865C31.48 41.6887 32.5512 41.425 33.4334 41.1613C34.5047 40.7658 34.7146 38.8682 34.8406 37.22C34.9666 35.1764 34.9036 28.9135 34.9036 24.7602C34.9036 24.6284 34.7146 24.2988 34.3995 24.2988C33.0132 24.2328 26.3576 24.2328 22.7657 24.2328C17.8505 24.2328 12.9984 24.2328 12.4313 24.3647C12.3052 24.3647 12.1792 24.6284 12.1792 24.6943C12.1792 28.3861 12.1792 35.1764 12.2422 36.4949C12.3682 38.7363 12.9936 40.568 14.695 41.0295C15.6402 41.2932 16.9635 41.6228 18.854 41.8865C19.169 42.282 18.7909 44.3257 18.4759 44.5235C17.7827 44.5235 14.4429 44.3257 9.40172 44.3257C4.80163 44.3257 1.52485 44.5235 0.327562 44.5235C0.0124876 44.1939 0.0124876 42.282 0.264547 41.8865C1.90294 41.6228 2.97419 41.4909 3.91942 41.2272C5.68383 40.6998 5.8777 38.5385 6.00373 35.506C6.06674 33.2645 6.06674 28.3202 6.06674 22.5847C6.06674 16.19 6.06674 9.72937 6.00373 8.54272C5.8777 6.69682 5.79084 5.53929 4.34149 5.07781C3.33325 4.74819 2.00994 4.55041 0.182505 4.28672Z" fill="#231F20"/>
<path d="M96.8192 4.28672C96.5042 3.95709 96.5672 1.91342 96.9453 1.71564C98.8987 1.71564 101.797 1.91342 104.759 1.91342C107.721 1.91342 111.628 1.64972 112.447 1.64972C112.762 1.8475 112.762 4.02302 112.384 4.28672C109.296 4.81411 108.729 5.27559 108.603 6.59409C108.477 7.97851 108.414 11.4066 108.477 13.9118C108.666 20.8339 113.581 21.6909 117.425 21.6909C119.82 21.6909 122.088 21.2294 124.231 20.3065C124.546 20.1746 126.118 20.0428 126.118 19.7131C126.118 15.3621 126.181 10.4177 126.055 7.84666C125.929 5.93484 125.866 5.34151 123.975 4.81412C123.219 4.61634 121.581 4.35264 120.321 4.22079C119.942 3.82524 120.005 1.78157 120.384 1.64972C122.274 1.64972 125.929 1.8475 129.269 1.8475C131.915 1.8475 135.885 1.64972 137.776 1.64972C138.154 1.78157 138.154 3.95709 137.839 4.22079C136.326 4.41856 135.444 4.61634 134.625 4.81412C133.239 5.20966 132.545 5.67114 132.356 8.04443C132.167 10.8792 132.167 16.5487 132.167 21.625C132.167 21.625 132.104 34.2166 132.293 36.9195C132.482 38.3699 132.152 40.7658 133.916 41.2272C134.672 41.425 135.68 41.6228 137.004 41.8865C137.445 42.0843 137.382 44.3257 136.941 44.5235C135.176 44.5235 131.584 44.3257 128.371 44.3257C125.346 44.3257 121.502 44.5235 119.36 44.5235C119.045 44.1279 118.982 42.0183 119.36 41.9524C120.872 41.7546 122.069 41.5569 122.951 41.3591C125.157 40.8317 125.992 38.304 126.055 34.4803C126.118 30.7885 126.118 27.5391 126.118 24.7702C126.118 24.4406 124.546 24.5065 124.294 24.6384C121.395 25.9569 118.114 26.1843 114.648 26.1843C109.859 26.1843 106.334 24.5257 104.066 21.3613C103.121 20.0428 102.428 17.8672 102.428 13.2525C102.428 13.2525 102.365 9.89033 102.365 8.30813C102.365 6.33039 101.923 5.34151 100.033 4.88004C99.2138 4.68226 98.2686 4.55041 96.8192 4.28672Z" fill="#231F20"/>
<path d="M136.941 41.8865C141.604 41.2272 142.788 39.6593 144.993 34.3194C147.766 27.3972 153.878 10.8501 155.264 6.56497C155.769 5.0487 156.215 2.70452 156.404 1.64972C156.719 1.71564 157.539 1.71564 158.736 1.71564C160.248 1.71564 160.941 1.71564 161.256 1.64972C161.509 2.96822 162.07 4.85093 162.511 6.16942C163.771 9.86122 170.766 29.1113 173.224 34.9786C175.24 39.6593 176.311 41.2272 181.1 41.8865C181.478 42.1502 181.289 44.1939 180.974 44.5235C179.336 44.4576 176.311 44.3257 172.719 44.3257C168.938 44.3257 164.842 44.5235 163.582 44.5235C163.267 44.1939 163.204 42.2161 163.582 41.8865C164.716 41.8206 166.355 41.4909 167.3 41.1613C168.056 40.8317 167.615 38.8022 167.426 38.3408C166.796 35.9675 160.243 17.2448 157.596 10.1908C157.533 10.1249 157.344 10.1249 157.281 10.1908C154.571 17.97 150.349 30.3639 148.459 36.5608C147.829 38.6704 147.842 40.8317 149.922 41.3591C150.741 41.5569 152.127 41.7546 153.262 41.8865C153.577 42.2161 153.514 44.1939 153.073 44.5235C151.812 44.5235 148.536 44.3257 144.314 44.3257C140.218 44.3257 138.138 44.5235 136.941 44.5235C136.689 44.1939 136.563 42.1502 136.941 41.8865Z" fill="#231F20"/>
<path d="M179.997 4.15486C179.682 3.75932 179.808 1.97934 180.186 1.64972C181.887 1.64972 187.221 1.8475 190.813 1.8475H203.542C205.999 1.8475 209.339 1.78157 210.851 1.64972C210.977 1.71564 211.166 1.91342 211.166 2.04527C210.725 3.89117 210.158 8.63776 210.095 11.4725C209.717 11.934 207.575 11.8681 207.26 11.6044C207.197 9.75848 206.881 8.83553 206.566 7.71481C206.062 6.06669 205.432 5.47337 203.668 5.34151C202.722 5.27559 194.467 5.27559 193.9 5.34151C193.396 5.47337 192.998 6.16108 192.998 6.55663C192.998 11.1054 192.875 16.2559 192.875 20.6729C192.875 20.8048 193.064 21.1344 193.253 21.1344C196.529 21.1344 200.184 21.2003 202.705 20.9366C203.65 20.8048 204.154 20.2114 204.469 19.2226C204.721 18.4315 204.973 17.3767 205.162 16.3219C205.793 16.0582 207.746 16.19 208.061 16.5856C207.935 18.1018 207.62 20.607 207.62 23.1121C207.62 25.3536 207.683 27.5291 207.746 29.5728C207.368 29.9024 205.162 29.9683 204.784 29.5728C204.469 27.9906 204.469 27.3972 204.154 26.5402C203.902 25.5513 203.272 25.0899 202.39 24.958C200.31 24.6943 196.151 24.7602 193.253 24.7602C193.064 24.7602 192.875 25.0239 192.875 25.2876C192.875 29.5728 192.875 35.2241 193.001 37.8611C193.001 38.9159 193.631 40.1685 194.45 40.4981C195.71 40.8937 203.713 40.8278 205.099 40.8278C206.801 40.8278 207.746 40.3004 209.069 38.3226C210.078 36.9382 211.275 34.2353 211.968 32.6531C212.472 32.5871 214.3 33.1805 214.615 33.6419C214.3 35.8175 212.976 40.7618 211.842 43.1351C211.527 43.9262 211.023 44.4536 207.809 44.4536C201.129 44.4536 195.017 44.1899 190.417 44.1899C186.195 44.1899 181.91 44.3877 179.263 44.3877C178.948 44.124 178.885 42.1463 179.2 41.7507C181.406 41.487 183.422 41.2892 184.62 40.9596C186.132 40.5641 185.973 39.0659 186.099 36.9563C186.225 35.8356 186.162 28.9135 186.162 21.5958C186.162 15.7945 186.162 10.1908 186.099 9.00419C185.973 6.82867 186.402 5.34151 184.952 4.88004C184.07 4.61634 181.698 4.41856 179.997 4.15486Z" fill="#231F20"/>
<path d="M240.098 42.0144L243.123 41.5529C245.58 41.0914 245.976 38.5385 246.103 35.1104C246.166 32.0779 246.166 26.0787 246.166 23.3099C242.7 23.3099 239.461 25.9287 237.948 28.302C236.121 31.2027 233.852 35.1582 231.836 38.5863C229.819 41.0914 228.937 43.3329 224.463 44.124C222.888 44.4536 220.052 44.4536 216.649 44.4536C216.334 44.124 216.397 42.1462 216.649 41.8166C221.564 40.9596 223.014 40.2344 224.841 38.0589C225.913 36.7404 230.513 29.4887 231.647 27.9724C233.6 25.1376 234.483 24.2806 236.184 23.2917C236.247 23.094 236.337 21.3323 236.274 21.1345C234.321 19.6182 232.934 17.0471 230.729 12.4983C227.893 7.15841 227.137 6.36731 225.246 6.36731C223.671 6.36731 222.033 6.89471 220.52 7.61989C220.268 7.75174 219.827 7.02656 219.827 6.82879C219.953 5.51029 220.268 3.137 220.772 2.01627C220.898 1.68665 221.577 1.15889 223.055 0.668294C223.055 0.668294 223.608 0.5 224.238 0.5C228.208 0.5 230.351 3.33477 232.178 7.29026C234.384 12.1028 235.896 15.5309 237.345 17.5086C238.984 19.7501 242.385 20.8048 246.229 20.8048C246.229 16.8493 246.229 11.3116 246.103 8.54272C246.04 6.76275 245.773 5.31233 243.945 4.91678L240.669 4.25753C240.354 3.92791 240.354 1.95016 240.795 1.68646C242.055 1.68646 245.836 1.88423 248.671 1.88423C252.074 1.88423 256.044 1.62053 257.179 1.68646C257.62 2.01608 257.62 3.99383 257.179 4.32345C255.981 4.52123 255.162 4.65308 254.343 4.85085C252.389 5.2464 252.152 6.56497 252.089 8.93827C252.026 11.5753 251.963 16.7174 251.963 20.541C251.963 20.6729 252.089 20.8048 252.341 20.8048C255.303 20.8048 258.165 19.9477 259.741 18.0358C261.001 16.5196 262.198 14.0803 264.152 10.5204C268.185 3.20273 270.453 0.829433 274.549 0.829433C275.053 0.829433 276.314 1.29091 276.818 1.68646C277.007 1.75238 277.259 2.54348 277.259 2.67533C277.259 3.73013 276.503 6.76267 275.999 7.8834C275.936 8.21302 275.432 8.34487 275.305 8.27894C273.982 7.42192 272.407 6.96045 271.336 6.96045C270.264 6.96045 269.004 8.1471 266.861 12.0367C263.648 17.7721 262.955 19.1566 261.001 20.9365C260.938 21.0684 259.903 21.5299 260.029 21.6618C261.919 22.8484 264.128 24.9399 265.451 26.9835C266.586 28.7635 269.484 33.8397 270.997 35.7515C274.589 40.4322 275.912 41.5529 281.52 41.8826C281.772 42.0144 281.583 44.4536 281.268 44.5196C280.071 44.7833 274.021 44.7832 272.824 44.6514C270.366 44.2558 269.295 43.2011 268.287 42.344C265.766 39.9048 261.923 32.5872 259.528 28.6976C257.448 25.2695 255.24 23.4417 252.152 23.4417C252.089 23.4417 251.963 23.5736 251.963 23.7054C251.963 27.0017 252.026 33.792 252.089 36.6926C252.152 38.9341 252.386 40.9596 254.088 41.4211C254.844 41.6189 256.23 41.8166 257.616 42.0144C258.057 42.2781 257.805 44.3877 257.49 44.6514C256.041 44.6514 251.567 44.4536 249.172 44.4536C246.841 44.4536 242.178 44.5855 240.287 44.6514C239.909 44.3877 239.846 42.344 240.098 42.0144Z" fill="#231F20"/>
<path d="M281.268 41.867C282.528 41.6692 284.172 41.487 284.928 41.3552C287.386 40.8937 287.476 39.3956 287.602 35.9675C287.665 32.869 287.665 25.0239 287.665 21.7277C287.665 17.7063 287.728 11.1797 287.602 8.47679C287.539 6.69682 287.417 5.09191 285.589 4.69636C284.707 4.49858 283.51 4.36673 282.187 4.10303C281.808 3.77341 281.934 1.79566 282.376 1.53196C283.636 1.53196 287.165 1.72974 290.441 1.72974C293.844 1.72974 298.729 1.62053 299.926 1.68646C300.241 1.95016 300.304 3.99383 299.863 4.32345C298.603 4.52123 297.499 4.49858 296.68 4.69636C294.727 5.09191 294.443 6.65613 294.38 9.02942C294.317 11.6005 294.317 16.9404 294.317 20.7641C294.317 20.8959 294.443 21.0278 294.695 21.0278C297.215 21.0278 299.514 21.2263 301.404 19.3145C303.232 17.4026 306.002 13.0915 307.578 10.2568C311.8 2.47763 314.068 0.697656 318.038 0.697656C318.416 0.697656 319.614 0.895432 320.181 1.3569C320.37 1.48876 320.622 2.01615 320.622 2.148C320.622 3.4665 319.866 6.56497 319.362 7.6857C319.299 7.9494 318.857 8.08124 318.731 8.08124C317.597 7.55384 315.77 6.82867 314.699 6.82867C313.564 6.82867 312.43 7.42199 309.972 11.9049C307.326 16.6515 304.744 20.1715 302.728 21.8855C302.665 22.0174 301.717 21.5958 301.843 21.7277C303.104 22.3869 306.416 25.4013 309.251 29.4228C310.575 31.2027 313.41 35.0923 315.049 37.136C317.695 40.4981 318.893 41.3552 324.564 41.8826C324.816 41.9485 324.69 44.4536 324.375 44.5196C322.989 44.7833 316.813 44.5855 315.679 44.3877C313.158 43.9922 312.591 43.3988 311.52 42.5418C308.936 40.3663 306.731 36.6745 301.564 28.6317C299.295 25.2036 296.144 23.7966 294.506 23.7307C294.443 23.7307 294.317 23.8625 294.317 23.9944C294.317 27.2906 294.317 33.949 294.38 36.7838C294.443 39.0252 294.507 40.7618 296.208 41.2233C296.964 41.4211 299.032 41.6848 300.419 41.8826C300.797 42.1463 300.671 44.2559 300.356 44.5196C298.969 44.3877 294.521 44.5196 291.307 44.5196C288.409 44.5196 283.348 44.4381 281.457 44.504C281.079 44.2403 281.016 42.2626 281.268 41.867Z" fill="#231F20"/>
<path d="M318.78 42.1934C323.443 41.5341 324.325 41.1386 326.531 35.7987C329.304 28.8766 335.497 11.3323 336.883 7.04718C337.387 5.53091 338.665 2.70437 338.854 1.64958C339.347 1.64958 340.121 1.64958 341.318 1.64958C342.83 1.64958 343.467 1.7155 343.782 1.64958C344.097 2.96807 345.029 5.34886 345.47 6.66736C346.73 10.3592 354.04 30.5906 356.497 36.4579C358.514 41.1386 359.018 41.5341 363.807 42.1934C364.185 42.4571 363.933 44.5008 363.681 44.8304C362.043 44.7645 359.018 44.6326 355.426 44.6326C351.645 44.6326 347.549 44.8304 346.289 44.8304C346.037 44.5008 345.974 42.523 346.289 42.1934C347.675 41.9956 348.999 41.7978 349.944 41.4682C350.7 41.1386 350.826 40.2816 350.7 39.8201C349.881 37.0512 347.927 31.587 346.919 29.0159C346.793 28.6863 346.415 28.5544 346.289 28.5544C345.155 28.4885 342.256 28.4885 339.925 28.4885C335.892 28.4885 334.257 28.4226 333.564 28.4885C333.249 28.4885 332.941 28.5057 332.941 28.6376C331.618 32.3953 329.682 38.172 329.682 39.4905C329.682 40.743 329.934 41.2045 331.761 41.666C332.58 41.8638 333.967 42.0615 335.101 42.1934C335.353 42.523 335.227 44.5008 334.912 44.8304C333.652 44.8304 330.375 44.6326 326.153 44.6326C322.057 44.6326 319.977 44.8304 318.78 44.8304C318.528 44.5008 318.528 42.523 318.78 42.1934ZM340.332 10.482C340.269 10.482 338.854 10.482 338.854 10.482C337.783 13.976 335.78 20.0501 334.583 24.0056C334.583 24.2034 334.393 24.6649 334.583 24.7308C335.276 24.7967 339.042 24.7308 340.87 24.7308C342.445 24.7308 344.21 24.7308 345.029 24.6649C345.218 24.6649 345.407 24.3352 345.344 24.0056C344.147 20.5775 341.404 13.119 340.332 10.482Z" fill="#231F20"/>
<path d="M80.1549 44.3257C80.1549 45.4981 64.7965 48.0018 56.1345 38.2089C52.2276 33.7919 50.5892 28.3861 50.5892 22.1232C50.5892 17.113 52.0385 12.8278 54.8742 9.07012C56.0739 7.73914 59.0647 4.78425 61.4299 3.61259L61.6026 3.52703C64.5377 2.07259 68.3381 0.189391 68.8214 1.15913C69.0658 1.64972 68.7526 2.51316 67.8358 3.12179C66.3575 4.10317 65.0768 5.34911 64.8793 5.57525C61.7478 9.06927 60.9372 14.4555 60.9372 20.7867C60.9372 27.9725 63.8937 33.2945 66.8503 37.22C68.2098 38.5393 71.7779 41.7229 75.2272 42.8679C78.1838 43.8492 80.1549 43.5991 80.1549 44.3257Z" fill="#231F20"/>
<path d="M90.9956 23.8373C90.0101 16.3704 88.1713 9.86122 83.3191 6.43313C82.5929 5.65648 80.9433 4.00504 80.1549 3.61248C79.1693 3.12179 77.691 2.14031 77.691 1.64972C77.691 1.15913 78.1838 0.668338 80.1549 1.15903C82.1259 1.64972 87.9559 4.83755 89.2294 6.43313C90.5028 8.0287 95.8947 13.6529 95.3511 23.8373C94.9377 31.5819 90.2657 37.7247 89.5173 36.9795C88.7689 36.2342 90.2467 34.0938 90.5028 32.5632C90.9956 29.6191 91.4609 27.3627 90.9956 23.8373Z" fill="#231F20"/>
</svg>
